<?xml version="1.0" standalone="no"?><!DOCTYPE svg PUBLIC "-//W3C//DTD SVG 1.1//EN" "http://www.w3.org/Graphics/SVG/1.1/DTD/svg11.dtd"><svg t="1556098187418" class="icon" style="" viewBox="0 0 1024 1024" version="1.1" xmlns="http://www.w3.org/2000/svg" p-id="4647" xmlns:xlink="http://www.w3.org/1999/xlink" width="16" height="16"><defs><style type="text/css"></style></defs><path d="M717.312 666.112c56.32-67.584 90.112-154.624 90.112-249.344 0-215.552-175.104-390.656-390.656-390.656-215.552 0-390.656 174.592-390.656 390.144s175.104 390.656 390.656 390.656c94.72 0 181.76-33.792 249.344-90.112l280.064 280.064 50.688-50.688-279.552-280.064z m-300.544 99.84c-192.512 0-349.696-156.672-349.696-349.696C67.072 223.744 223.744 66.56 416.768 66.56c192.512 0 349.696 156.672 349.696 349.696 0 193.024-156.672 349.696-349.696 349.696z m0 0" fill="#1296db" p-id="4648"></path><path d="M416.768 109.056c-170.496 0-308.224 138.24-308.224 308.224 0 170.496 138.24 308.224 308.224 308.224 170.496 0 308.224-138.24 308.224-308.224s-137.728-308.224-308.224-308.224z m0 0" fill="#1296db" p-id="4649"></path></svg>