<?xml version="1.0" standalone="no"?><!DOCTYPE svg PUBLIC "-//W3C//DTD SVG 1.1//EN" "http://www.w3.org/Graphics/SVG/1.1/DTD/svg11.dtd"><svg t="1556098237958" class="icon" style="" viewBox="0 0 1024 1024" version="1.1" xmlns="http://www.w3.org/2000/svg" p-id="5107" xmlns:xlink="http://www.w3.org/1999/xlink" width="16" height="16"><defs><style type="text/css"></style></defs><path d="M493.140978 49.368384c-246.704798 0-446.708971 198.684108-446.708971 443.748547 0 245.072625 200.004173 443.756733 446.708971 443.756733 246.705821 0 446.708971-198.684108 446.708972-443.756733 0-245.064438-200.00315-443.748546-446.708972-443.748547z m-224.758973 779.914866c0.514723-2.076288 0.793062-4.243651 0.793062-6.477528l-0.031722-0.354064h0.49835c12.697183-103.414301 101.273545-174.319188 210.174813-179.726338a219.396849 219.396849 0 0 0 12.215206 0.354064c4.088108 0 8.159844-0.128937 12.198834-0.354064 108.932991 5.374404 186.195679 76.280314 198.892862 179.726338h0.547469l0.031723 0.354064c0 4.834098 1.286296 9.370415 3.526313 13.300934-62.161758 38.370913-135.51951 60.533678-214.087937 60.533678-83.113953 0-160.393014-24.802896-224.758973-67.357084z m81.338516-386.376885c0-74.92955 58.658981-129.87086 134.103254-129.870859 75.4279 0 131.833561 56.905034 131.833561 131.833561 0 74.92955-53.927213 133.717468-129.355113 133.717467s-136.581702-60.750619-136.581702-135.680169z m405.614018 358.425276c-16.217357-90.896196-77.985142-166.183903-161.048953-201.671139 50.291406-34.237779 87.289042-89.678462 87.289042-154.791435 0-104.910375-89.62218-191.973266-195.22431-191.973266-105.60213 0-200.277396 87.063915-200.277395 191.973266 0 65.144696 42.083467 120.600729 92.390223 154.823158-79.94989 34.205033-140.14383 105.269555-158.964478 191.643761-81.450057-73.79675-132.561132-180.077332-132.561132-298.220079 0-222.839251 181.867094-403.499867 406.203442-403.499867 224.337371 0 406.203442 180.659593 406.203442 403.499867 0 123.587759-55.926754 234.196926-144.009881 308.215734z" fill="#2c2c2c" p-id="5108"></path></svg>